<svg width="1229" height="284" viewBox="0 0 1229 284" fill="none" xmlns="http://www.w3.org/2000/svg">
<rect x="0.5" y="20.5" width="255" height="255" rx="43.5" stroke="#888888" stroke-opacity="0.35"/>
<path opacity="0.2" d="M121.486 197.637C115.076 204.047 106.382 207.648 97.3172 207.648C88.2521 207.648 79.5583 204.047 73.1483 197.637C67.6399 192.127 64.1791 184.9 63.3391 177.154C62.4991 169.408 64.3302 161.607 68.5293 155.044L61.0096 162.716C54.5996 169.126 50.9985 177.82 50.9985 186.885C50.9985 195.95 54.5996 204.644 61.0096 211.054C67.4196 217.464 76.1134 221.065 85.1785 221.065C94.2436 221.065 102.937 217.464 109.347 211.054L126.012 193.751L126.265 192.675L121.486 197.637Z" fill="black"/>
<path opacity="0.2" d="M137.36 90.7396C144.853 85.6366 154.065 83.719 162.972 85.4086C171.878 87.0982 179.748 92.2566 184.851 99.749C189.236 106.19 191.289 113.935 190.671 121.702C190.052 129.469 186.799 136.791 181.45 142.457L190.268 136.321C197.761 131.218 202.919 123.348 204.609 114.441C206.298 105.535 204.381 96.3225 199.278 88.8301C194.175 81.3377 186.304 76.1793 177.398 74.4897C168.492 72.8001 159.279 74.7177 151.787 79.8206L132.19 93.7145L131.74 94.7241L137.36 90.7396Z" fill="black"/>
<path d="M85.1787 225.341C77.8255 225.341 70.6373 223.161 64.5233 219.075C58.4093 214.99 53.644 209.184 50.8301 202.39C48.0161 195.597 47.2798 188.121 48.7144 180.91C50.149 173.698 53.69 167.073 58.8895 161.874L90.4405 129.684C93.8918 126.227 97.9904 123.484 102.502 121.612C107.014 119.74 111.851 118.775 116.736 118.773C121.62 118.771 126.458 119.732 130.971 121.601C135.484 123.469 139.585 126.209 143.039 129.663C143.602 130.225 143.917 130.988 143.917 131.783C143.917 132.578 143.602 133.34 143.039 133.903C142.477 134.465 141.715 134.781 140.919 134.781C140.124 134.781 139.362 134.465 138.8 133.903C132.952 128.055 125.021 124.77 116.751 124.77C108.481 124.77 100.55 128.055 94.702 133.903C90.0679 150.24 80.0548 161.45 63.1511 166.093C60.2507 168.986 57.9489 172.422 56.3772 176.206C54.8056 179.989 53.9949 184.045 53.9914 188.142C53.9879 192.239 54.7918 196.296 56.3571 200.082C57.9224 203.868 60.2183 207.308 63.1138 210.207C66.0092 213.105 69.4475 215.404 73.232 216.973C77.0164 218.542 81.0729 219.35 85.1697 219.35C89.2665 219.351 93.3232 218.544 97.1081 216.976C100.893 215.408 104.332 213.109 107.228 210.212C106.545 203.509 108.503 197.209 123.852 192.949C124.125 192.664 124.452 192.436 124.813 192.277C125.174 192.119 125.563 192.033 125.957 192.025C126.352 192.017 126.744 192.087 127.111 192.231C127.478 192.375 127.813 192.59 128.097 192.863C128.382 193.137 128.609 193.464 128.766 193.825C128.924 194.187 129.008 194.576 129.015 194.971C129.022 195.365 128.951 195.757 128.806 196.124C128.661 196.491 128.446 196.825 128.171 197.109L111.507 214.411C108.06 217.885 103.958 220.64 99.4388 222.516C94.9193 224.393 90.0722 225.353 85.1787 225.341Z" fill="url(#paint0_linear_1_33)"/>
<path d="M136.402 179.804C131.517 179.817 126.679 178.861 122.166 176.992C117.654 175.123 113.557 172.377 110.113 168.914C109.55 168.351 109.235 167.589 109.235 166.793C109.235 165.998 109.551 165.235 110.113 164.673C110.675 164.111 111.438 163.795 112.233 163.795C113.029 163.795 113.791 164.111 114.353 164.674C117.249 167.569 120.686 169.866 124.469 171.433C128.252 173 132.307 173.807 136.402 173.807C140.497 173.807 144.551 173 148.335 171.433C152.118 169.866 155.555 167.569 158.45 164.674C162.446 140.603 178.738 137.206 192.898 130.227C195.794 127.331 198.091 123.894 199.658 120.111C201.225 116.328 202.031 112.273 202.031 108.178C202.031 104.083 201.225 100.028 199.657 96.2451C198.09 92.462 195.794 89.0245 192.898 86.129C190.002 83.2335 186.565 80.9367 182.782 79.3697C178.999 77.8026 174.944 76.9961 170.849 76.9961C166.754 76.9962 162.699 77.8027 158.916 79.3698C155.133 80.9369 151.696 83.2337 148.8 86.1293C144.861 97.4941 140.993 108.993 129.261 105.668C128.983 105.947 128.652 106.168 128.288 106.318C127.925 106.469 127.535 106.546 127.141 106.546C126.346 106.546 125.583 106.231 125.021 105.668C124.459 105.106 124.143 104.344 124.143 103.548C124.143 102.753 124.459 101.991 125.021 101.428L144.56 81.8893C148.012 78.437 152.111 75.6985 156.621 73.8301C161.132 71.9617 165.966 71 170.849 71C175.731 71 180.565 71.9616 185.076 73.83C189.587 75.6983 193.685 78.4368 197.138 81.8891C200.59 85.3414 203.329 89.4399 205.197 93.9505C207.065 98.4611 208.027 103.296 208.027 108.178C208.027 113.06 207.065 117.895 205.197 122.405C203.329 126.916 200.59 131.015 197.138 134.467L162.691 168.914C159.246 172.377 155.149 175.123 150.637 176.992C146.124 178.861 141.286 179.817 136.402 179.804Z" fill="url(#paint1_linear_1_33)"/>
<path d="M79.4888 151.625C81.1448 151.625 82.4872 150.282 82.4872 148.627C82.4872 146.971 81.1448 145.628 79.4888 145.628C77.8329 145.628 76.4905 146.971 76.4905 148.627C76.4905 150.282 77.8329 151.625 79.4888 151.625Z" fill="white"/>
<path d="M174.436 149.626C176.092 149.626 177.435 148.284 177.435 146.628C177.435 144.972 176.092 143.629 174.436 143.629C172.78 143.629 171.438 144.972 171.438 146.628C171.438 148.284 172.78 149.626 174.436 149.626Z" fill="white"/>
<path d="M424 90V112.6H357V147.6H418.4V170.2H357V220H333V90H424ZM430.384 85.6H457.184V107.4H430.384V85.6ZM431.784 120H455.784V220H431.784V120ZM461.539 120H487.539L509.339 157.4L531.339 120H557.339L527.939 169.6L557.339 220H531.539L509.739 181.6L487.539 220H461.539L490.939 169.4L461.539 120ZM643.952 220H621.952L587.352 123.8V220H563.352V90H598.552L632.952 186.6L666.552 90H702.552V220H678.552V123.8L643.952 220ZM714.731 232.4H727.931C732.065 232.4 735.265 231.6 737.531 230C739.798 228.4 741.665 225.733 743.131 222L744.931 217L708.531 120H733.931L759.931 192.8L785.131 120H810.731L772.931 224.2C770.398 231.4 767.398 237.133 763.931 241.4C760.598 245.8 756.465 248.933 751.531 250.8C746.731 252.8 740.798 253.8 733.731 253.8H714.731V232.4ZM897.789 220H816.789V90H840.789V197.4H897.789V220ZM902.259 85.6H929.059V107.4H902.259V85.6ZM903.659 120H927.659V220H903.659V120ZM1005.41 162C1005.41 153.867 1003.41 148 999.414 144.4C995.547 140.8 990.281 139 983.614 139C979.481 139 975.747 139.933 972.414 141.8C969.081 143.667 966.414 146.267 964.414 149.6C962.414 152.8 961.414 156.533 961.414 160.8L954.614 159.6C954.747 150.667 956.681 143.067 960.414 136.8C964.281 130.4 969.081 125.533 974.814 122.2C980.681 118.733 986.681 117 992.814 117C999.881 117 1006.15 118.533 1011.61 121.6C1017.21 124.667 1021.55 129.2 1024.61 135.2C1027.81 141.067 1029.41 148.333 1029.41 157V220H1005.41V162ZM937.414 120H961.414V220H937.414V120ZM1038.94 80H1062.94V220H1038.94V80ZM1100.74 120H1130.74L1091.54 167.4L1133.34 220H1104.94L1073.74 181.2L1060.94 196.6L1052.14 182.4L1100.74 120ZM1182.45 180.8L1164.45 178.8C1153.52 177.2 1145.25 174 1139.65 169.2C1134.18 164.4 1131.45 157.533 1131.45 148.6C1131.45 139 1135.25 131.4 1142.85 125.8C1150.45 120.2 1160.78 117.4 1173.85 117.4C1186.52 117.4 1196.78 120.267 1204.65 126C1212.52 131.733 1216.98 139.6 1218.05 149.6H1194.65C1193.72 144.667 1191.58 141 1188.25 138.6C1184.92 136.2 1180.18 135 1174.05 135C1168.45 135 1163.98 136.133 1160.65 138.4C1157.32 140.533 1155.65 143.467 1155.65 147.2C1155.65 150.667 1156.78 153.267 1159.05 155C1161.32 156.6 1164.72 157.733 1169.25 158.4L1188.25 160.4C1199.45 161.733 1207.58 165 1212.65 170.2C1217.85 175.267 1220.45 182.667 1220.45 192.4C1220.45 198.4 1218.72 203.667 1215.25 208.2C1211.78 212.6 1206.92 216.067 1200.65 218.6C1194.38 221 1186.98 222.2 1178.45 222.2C1164.58 222.2 1153.45 219.333 1145.05 213.6C1136.65 207.867 1131.78 200.067 1130.45 190.2H1155.25C1156.32 195.267 1158.65 199 1162.25 201.4C1165.98 203.8 1171.32 205 1178.25 205C1183.98 205 1188.58 203.933 1192.05 201.8C1195.52 199.667 1197.25 196.733 1197.25 193C1197.25 185.933 1192.32 181.867 1182.45 180.8Z" fill="#E3E2E6"/>
<defs>
<linearGradient id="paint0_linear_1_33" x1="27" y1="246.5" x2="141" y2="132.5" gradientUnits="userSpaceOnUse">
<stop stop-color="#067BDE"/>
<stop offset="1" stop-color="#06CDCB"/>
</linearGradient>
<linearGradient id="paint1_linear_1_33" x1="196.5" y1="82" x2="131" y2="146.5" gradientUnits="userSpaceOnUse">
<stop stop-color="#067BDE"/>
<stop offset="1" stop-color="#06CDCB"/>
</linearGradient>
</defs>
</svg>
